<svg width="84" height="84" viewBox="0 0 84 84" fill="none" xmlns="http://www.w3.org/2000/svg">
<path d="M73.177 60C72.3485 61.4349 72.8402 63.2697 74.275 64.0981C75.7099 64.9265 77.5447 64.4349 78.3731 63L73.177 60ZM52.094 79.6711L52.8704 82.5689C54.182 82.2175 55.094 81.0289 55.094 79.6711H52.094ZM52.094 39H55.094V36H52.094V39ZM32 36C30.3431 36 29 37.3431 29 39C29 40.6569 30.3431 42 32 42V36ZM71 42C72.6569 42 74 40.6569 74 39C74 37.3431 72.6569 36 71 36V42ZM78.3731 63C83.2316 54.5849 85.0219 44.7455 83.4391 35.1584L77.5192 36.1358C78.8759 44.3533 77.3414 52.7871 73.177 60L78.3731 63ZM83.4391 35.1584C81.8562 25.5713 76.9981 16.8296 69.6926 10.4227L65.7365 14.9338C71.9984 20.4253 76.1625 27.9182 77.5192 36.1358L83.4391 35.1584ZM69.6926 10.4227C62.387 4.01593 53.086 0.34043 43.3742 0.0225007L43.1779 6.01929C51.5023 6.2918 59.4746 9.44223 65.7365 14.9338L69.6926 10.4227ZM43.3742 0.0225007C33.6625 -0.295428 24.141 2.76389 16.4321 8.67917L20.0846 13.4393C26.6923 8.36905 34.8536 5.74678 43.1779 6.01929L43.3742 0.0225007ZM16.4321 8.67917C8.72311 14.5945 3.30369 22.9997 1.09721 32.4628L6.94047 33.8253C8.83174 25.714 13.477 18.5095 20.0846 13.4393L16.4321 8.67917ZM1.09721 32.4628C-1.10927 41.9259 0.0337044 51.8613 4.33139 60.5761L9.71263 57.9224C6.0289 50.4525 5.0492 41.9365 6.94047 33.8253L1.09721 32.4628ZM4.33139 60.5761C8.62907 69.291 15.8156 76.2461 24.6663 80.2563L27.1426 74.7911C19.5562 71.3538 13.3964 65.3923 9.71263 57.9224L4.33139 60.5761ZM24.6663 80.2563C33.5171 84.2665 43.4846 85.0838 52.8704 82.5689L51.3175 76.7733C43.2725 78.929 34.729 78.2285 27.1426 74.7911L24.6663 80.2563ZM55.094 79.6711V39H49.094V79.6711H55.094ZM52.094 36H32V42H52.094V36ZM32 42H71V36H32V42Z" fill="white"/>
</svg>
